<svg id="vector" xmlns="http://www.w3.org/2000/svg" width="24" height="24" viewBox="0 0 32 32">
    <path fill="#ffffff"
        d="M1,10h30c0.552,0 1,-0.448 1,-1c0,-0.552 -0.448,-1 -1,-1H1C0.448,8 0,8.448 0,9C0,9.552 0.448,10 1,10z"
        id="path_0" />
    <path fill="#ffffff"
        d="M31,15H1c-0.552,0 -1,0.448 -1,1c0,0.552 0.448,1 1,1h30c0.552,0 1,-0.448 1,-1C32,15.448 31.552,15 31,15z"
        id="path_1" />
    <path fill="#ffffff"
        d="M31,22H11c-0.552,0 -1,0.448 -1,1s0.448,1 1,1h20c0.552,0 1,-0.448 1,-1S31.552,22 31,22z"
        id="path_2" />
</svg>